<svg width="2500" height="784" viewBox="0 0 2500 784" fill="none" xmlns="http://www.w3.org/2000/svg">
<g clip-path="url(#clip0_332_202)">
<path fill-rule="evenodd" clip-rule="evenodd" d="M133.013 392L265.979 261.333L0 0V784L133.013 653.333V392Z" fill="white"/>
<path fill-rule="evenodd" clip-rule="evenodd" d="M332.582 195.999L265.98 261.333L332.51 326.666L399.017 391.999V130.666L332.582 195.999ZM393.859 376.564L276.536 261.333L393.859 146.06V376.564Z" fill="#12FFF7"/>
<path fill-rule="evenodd" clip-rule="evenodd" d="M465.621 65.3333L399.09 130.667L465.621 196L532.08 261.333V0L465.621 65.3333ZM526.825 245.98L409.575 130.667L526.825 15.3941V245.98Z" fill="#12FFF7"/>
<path fill-rule="evenodd" clip-rule="evenodd" d="M399.066 392L332.559 457.334L266.052 522.708V261.293L332.559 326.667L399.066 392Z" fill="#12DFF9"/>
<path fill-rule="evenodd" clip-rule="evenodd" d="M465.549 326.667L399.09 392.001L465.549 457.334L532.08 522.667V261.334L465.549 326.667ZM526.825 507.232L409.575 392.001L526.825 276.769V507.232Z" fill="#12DFF9"/>
<path fill-rule="evenodd" clip-rule="evenodd" d="M532.102 522.708L465.595 588.082L399.064 653.415V392L465.595 457.374L532.102 522.708Z" fill="#12DFF9"/>
<path fill-rule="evenodd" clip-rule="evenodd" d="M133.014 392L199.521 457.334L266.052 522.708V261.293L199.521 326.667L133.014 392Z" fill="#12FFF7"/>
<path d="M996.667 116.211V673.382H942.876V276.196L843.26 556.353H836.734L737.094 275.338V673.382H683.303V116.211H741.317L840.069 394.735L939.085 116.211H996.667Z" fill="white"/>
<path d="M1244.07 275.382H1294.58V673.384H1244.07V616.217C1225.06 661.325 1197.77 683.878 1162.21 683.878C1130.11 683.878 1102.68 663.584 1079.92 622.996C1057.16 582.407 1045.76 532.863 1045.73 474.362C1045.73 415.481 1057.12 365.868 1079.9 325.525C1102.67 285.182 1130.1 265.024 1162.19 265.051C1197.75 265.051 1225.03 287.332 1244.05 331.895L1244.07 275.382ZM1117.32 565.502C1131.35 589.676 1148.95 601.749 1170.11 601.722C1191.27 601.694 1208.86 589.621 1222.89 565.502C1236.92 541.356 1243.94 510.976 1243.95 474.362C1243.97 437.748 1236.95 407.382 1222.89 383.263C1208.88 359.09 1191.28 347.017 1170.11 347.044C1148.93 347.071 1131.33 359.144 1117.32 383.263C1103.3 407.382 1096.28 437.748 1096.28 474.362C1096.28 510.976 1103.3 541.356 1117.32 565.502Z" fill="white"/>
<path d="M1404.01 342.267C1416.8 292.913 1440.8 268.236 1475.99 268.236V361.377C1456.65 359.254 1439.81 367.08 1425.48 384.856C1411.15 402.632 1403.95 431.937 1403.89 472.771V673.385H1353.5V275.382H1404.01V342.267Z" fill="white"/>
<path d="M1720.16 673.382H1659.93L1563.97 489.632V673.382H1513.44V116.211H1563.97V452.106L1654.68 275.379H1716.41L1613.53 470.399L1720.16 673.382Z" fill="white"/>
<path d="M1775.36 510.99C1779.1 541.234 1787.68 564.454 1801.08 580.652C1814.48 596.849 1830.86 604.948 1850.19 604.948C1877 604.948 1897.11 588.492 1910.51 555.58L1952.14 596.944C1929.06 654.791 1894.91 683.715 1849.71 683.715C1811.69 683.715 1780.98 663.952 1757.58 624.425C1734.18 584.898 1722.49 534.877 1722.51 474.362C1722.51 414.963 1734.05 365.229 1757.13 325.157C1780.21 285.086 1809.8 265.051 1845.9 265.051C1880.21 265.051 1908.35 285.467 1930.33 326.301C1952.3 367.134 1963.29 416.747 1963.29 475.138C1963.15 487.133 1962.52 499.098 1961.42 510.949L1775.36 510.99ZM1774.88 440.961H1912.38C1908.94 408.594 1901.07 384.189 1888.77 367.747C1876.47 351.316 1861.22 342.593 1845.59 343.042C1826.87 343.042 1811.28 351.794 1798.8 369.298C1786.33 386.802 1778.35 410.703 1774.88 441.002V440.961Z" fill="white"/>
<path d="M2130.81 358.191H2072.79V549.21C2072.79 565.543 2074.98 577.344 2079.34 584.612C2083.71 591.799 2090.19 595.76 2098.75 596.576C2107.32 597.393 2117.95 597.23 2130.81 596.168V673.384C2092.13 681.36 2064.38 675.657 2047.55 656.275C2030.73 636.892 2022.28 601.204 2022.22 549.21V358.191H1979.27V275.381H2022.22V189.427L2072.6 163.947V275.381H2130.61L2130.81 358.191Z" fill="white"/>
<path d="M2176.61 275.338V673.3H2227.18V275.338H2176.61Z" fill="white"/>
<path d="M2234.12 160.719C2234.13 169.748 2232.84 178.645 2230.36 186.622C2227.87 194.598 2224.27 201.408 2219.87 206.45C2215.46 211.491 2210.4 214.608 2205.12 215.524C2199.84 216.44 2194.52 215.127 2189.61 211.702C2184.7 208.277 2180.36 202.845 2176.98 195.886C2173.6 188.928 2171.28 180.659 2170.22 171.81C2169.17 162.961 2169.41 153.806 2170.93 145.155C2172.45 136.504 2175.2 128.624 2178.94 122.213C2181.93 117.042 2185.51 112.935 2189.45 110.133C2193.39 107.33 2197.61 105.887 2201.88 105.887C2206.15 105.887 2210.38 107.33 2214.32 110.133C2218.26 112.935 2221.83 117.042 2224.83 122.213C2227.81 127.258 2230.16 133.262 2231.75 139.874C2233.35 146.486 2234.15 153.572 2234.12 160.719Z" fill="#12DFF9"/>
<path d="M2444.15 275.381H2499.33L2408.16 673.383H2349.69L2258.52 275.381H2313.7L2379.2 578.732L2444.15 275.381Z" fill="white"/>
<path fill-rule="evenodd" clip-rule="evenodd" d="M400.672 653.414L467.179 718.748L533.709 784.122V522.666L467.179 588.04L400.672 653.414Z" fill="#12FFF7"/>
</g>
<defs>
<clipPath id="clip0_332_202">
<rect width="2500" height="784" fill="white"/>
</clipPath>
</defs>
</svg>
