<?xml version="1.0" encoding="UTF-8"?>
<svg fill='white' version="1.1" viewBox="0 0 1086 1075" width="1280" height="1280" xmlns="http://www.w3.org/2000/svg">
<path transform="translate(230,387)" d="m0 0h153l12 4 9 7 5 6 4 11 1 7v94h-22v-54h-173v54h-22l1-101 5-12 6-7 10-6zm52 21-53 1-6 4-4 7v21h173l1-1-1-21-4-6-6-4-9-1z" fill="white"/>
<path transform="translate(474,387)" d="m0 0h185l1 1v20l-1 1h-173l-11 1-6 2-2 4-2 9v54l3 9 5 4 3 1 184 1v21l-1 1h-181l-14-3-9-6-6-7-4-7-2-9v-65l3-12 7-9 7-6 10-4z" fill="white"/>
<path transform="translate(722,387)" d="m0 0h152l12 4 8 6 6 7 4 10 1 7v95h-22l-1-97-5-7-4-2-7-1h-131l-14 1-6 3-4 7-1 96h-22l1-100 4-11 7-9 10-6z" fill="white"/>
<path transform="translate(628,541)" d="m0 0h209l28 1v2l-75 1h-552v-3z" fill="#757575"/>
<path transform="translate(609,566)" d="m0 0h11l7 5 1 2v9l-4 5-6 2h-9zm4 3v18l7-1 4-4v-8l-4-5z" fill="white"/>
<path transform="translate(348,566)" d="m0 0h8l6 5 1 8-2 5-4 4-9 1-6-4-2-8 3-7zm4 2-5 2-2 4v8l4 5 6-1 3-3v-11l-5-4z" fill="white"/>
<path transform="translate(690,566)" d="m0 0h10l5 4-2 6-1 2 4 2-1 5-6 4h-9zm5 2-1 1v7l6-1 1-4-4-3zm-2 10v8l4 1 5-3-1-4-2-2z" fill="white"/>
<path transform="translate(500,566)" d="m0 0h10l4 2 1 7-5 2 4 6 1 3h2v3l-5-1-5-8-2-1-1 10h-4zm4 3v7l4 1 3-2v-5l-1-1z" fill="white"/>
<path transform="translate(663,566)" d="m0 0h10l5 4-1 6-4 1 4 7 3 3v2h-4l-8-10-1 9-2 1-2-1zm4 2v8l3 1 4-3-1-5z" fill="white"/>
<path transform="translate(541,566)" d="m0 0 4 1 9 11v2h2v-14h2l1 20v3l-4-2-11-14-1 16-3-1v-18z" fill="white"/>
<path transform="translate(424,566)" d="m0 0h3l10 13 1-6v-6l3-1v22h-3l-10-13-2-1v14l-2 1-1-7v-15z" fill="white"/>
<path transform="translate(830,565)" d="m0 0 7 1 1 3-11 1-3 4v7l3 4 6 1 1-7 4-1v10l-2 1h-9l-6-4-2-3v-9l4-5z" fill="white"/>
<path transform="translate(732,566)" d="m0 0h10l4 2 1 7-1 2-4 2h-6v9l-4 1zm4 3v8h5l2-2v-5l-1-1z" fill="white"/>
<path transform="translate(272,566)" d="m0 0h2l6 15 3 5v3h-4l-3-5-9-1-2 5-2 1 1-6 7-16zm-1 7-2 4v4h6l-1-5z" fill="white"/>
<path transform="translate(399,566)" d="m0 0h13l1 3h-9l-1 7h7v2h-7l1 8h9v3h-13l-1-1z" fill="white"/>
<path transform="translate(639,566)" d="m0 0h12l1 3h-9v6l6 1v2h-7l1 8h9l-1 3h-12l-1-3v-19z" fill="white"/>
<path transform="translate(756,566)" d="m0 0h9l5 2 1 7-5 4-6 1v8l-4 1zm3 3 1 8h5l2-2-1-6z" fill="white"/>
<path transform="translate(800,566)" d="m0 0 3 1 8 18v4h-3l-2-6-10 1-2 5h-2l1-6zm0 7-2 4v4h5l1-2-3-6z" fill="white"/>
<path transform="translate(291,566)" d="m0 0h4l1 18 7 1 2-3 1-16h2v18l-4 5h-7l-4-2-2-4z" fill="whit"/>
<path transform="translate(379,566)" d="m0 0h9l1 3h-8l-4 2-1 2v10l5 3h9v2l-2 1h-9l-7-4-2-5 1-8 6-5z" fill="white"/>
<path transform="translate(476,566)" d="m0 0h13v3h-9l-1 7 6-1 1 3h-7v9l2-1h8v3h-13z" fill="white"/>
<path transform="translate(449,566)" d="m0 0h17l1 3h-7v20l-4-1v-19h-7z" fill="white"/>
<path transform="translate(585,566)" d="m0 0h12l1 3h-9l-1 7h7v2h-7l1 8h9v2l-11 1h-2z" fill="white"/>
<path transform="translate(317,566)" d="m0 0h16l1 3h-6l-1 19-3 1-1-1v-19h-6z" fill="white"/>
<path transform="translate(352,566)" d="m0 0 6 1 4 4 1 8-2 5-4 4h-4v-2l4-3v-11l-5-4z" fill="white"/>
<path transform="translate(620,567)" d="m0 0 5 2 3 4v9l-4 5-4 1v-3l3-3v-8l-3-4-7-1v-1z" fill="white"/>
<path transform="translate(690,567)" d="m0 0h9v1h-6l1 18 3 2h-7z" fill="white"/>
<path transform="translate(732,567)" d="m0 0h9v1h-6v21h-3z" fill="white"/>
<path transform="translate(717,566)" d="m0 0h3l1 6-1 17h-3z" fill="white"/>
<path transform="translate(269,571)" d="m0 0 4 1-1 2-3 7h6l2 1-1 2-9-1-2 5-2 1 1-6z" fill="white"/>
<path transform="translate(765,567)" d="m0 0 5 1 1 7-5 4-7 1v-8h1v5l6-2v-6h-7v-1z" fill="white"/>
<path transform="translate(570,566)" d="m0 0h3v23h-3z" fill="white"/>
<path transform="translate(799,569)" d="m0 0 3 3-1 2-3 7 8 1v1l-10 1-2 5h-2l1-6z" fill="white"/>
<path transform="translate(510,567)" d="m0 0 4 1 1 7-5 2-1 2-1-3 2-1v-5l-6-1v7l3 1h-4v-9z" fill="white"/>
<path transform="translate(306,566)" d="m0 0h2v18l-4 4-7-1-1-2h7l2-3z" fill="white"/>
<path transform="translate(663,566)" d="m0 0h10l5 4-1 6-4 1-1 2v-2l-2-1 3-2v-4l-5-1v-1l-5-1z" fill="white"/>
<path transform="translate(507,577)" d="m0 0h2v2h2l4 5v2h2v3l-5-1-5-8-2-2z" fill="white"/>
<path transform="translate(669,577)" d="m0 0h3l8 10v2h-4l-7-9z" fill="white"/>
<path transform="translate(379,566)" d="m0 0h9l1 3h-8l-7 3-3 2 2-4z" fill="white"/>
<path transform="translate(835,578)" d="m0 0h3v10h-5l1-9z" fill="white"/>
<path transform="translate(424,571)" d="m0 0h1l1 7v10l-2 1-1-7v-10z" fill="white"/>
<path transform="translate(830,565)" d="m0 0 7 1 1 3h-11l-1-3z" fill="white"/>
<path transform="translate(644,586)" d="m0 0h8l-1 3h-12l4-2z" fill="white"/>
<path transform="translate(269,571)" d="m0 0 4 1-1 2-3 7-3-1z" fill="white"/>
<path transform="translate(481,586)" d="m0 0h8v3h-13l4-2z" fill="white"/>
</svg>
