<svg id="Layer_1" data-name="Layer 1" xmlns="http://www.w3.org/2000/svg" viewBox="0 0 512 512"><defs><style>.cls-1{fill:#495875;}.cls-2{fill:#2686ef;}</style></defs><title>gesture-27-filled</title><path class="cls-1" d="M148.41,512H363.59a3.71,3.71,0,0,0,3.71-3.71V464.91a160.3,160.3,0,0,1,9.82-55.33l4.72-12.9a126,126,0,0,0,7.72-43.51v-58.8c0-17.74-13.23-32.91-30.12-34.51a33.18,33.18,0,0,0-25.72,8.52,32.82,32.82,0,0,0-3.51,3.73c0-17.74-13.23-32.91-30.12-34.51a33.34,33.34,0,0,0-29.24,12.25v-7.42c0-17.74-13.23-32.91-30.12-34.51a33.34,33.34,0,0,0-29.24,12.25V138.55c0-17.74-13.23-32.91-30.12-34.51a33.14,33.14,0,0,0-25.72,8.52,33.47,33.47,0,0,0-10.93,24.72V289.45c-23.55.72-39.63,8.41-47.83,22.9C75.22,350.59,117.55,422,119.52,425.22c17.89,25.09,25.17,37.57,25.17,60.28v22.79A3.71,3.71,0,0,0,148.41,512Zm-22.68-90.85c-.42-.7-41.94-70.63-22.4-105.15,6.81-12,20.71-18.45,41.37-19.13v25.91a3.71,3.71,0,0,0,7.42,0V137.28a26,26,0,0,1,28.53-25.85c13.13,1.25,23.41,13.17,23.41,27.12V256a3.71,3.71,0,1,0,7.42,0V241.16A26,26,0,0,1,220,221.93a25.71,25.71,0,0,1,20-6.62c13.13,1.25,23.41,13.17,23.41,27.12v43.25a3.71,3.71,0,1,0,7.42,0V270.84A26,26,0,0,1,299.37,245c13.13,1.25,23.41,13.17,23.41,27.12v35.83a3.71,3.71,0,1,0,7.42,0V293.1a26,26,0,0,1,8.51-19.22,25.71,25.71,0,0,1,20-6.62c13.13,1.25,23.41,13.17,23.41,27.12v58.8a118.59,118.59,0,0,1-7.27,41L370.15,407a167.74,167.74,0,0,0-10.27,57.88v39.67H152.12V485.5C152.12,460.73,144,446.8,125.72,421.15Z"/><path class="cls-2" d="M381.06,1.09a3.71,3.71,0,1,0-5.25,5.25L414,44.52H304.23a3.71,3.71,0,1,0,0,7.42H414L375.81,90.13a3.71,3.71,0,1,0,5.25,5.25l44.52-44.52a3.71,3.71,0,0,0,0-5.25Z"/><path class="cls-2" d="M89,141a3.71,3.71,0,0,0,3.71-3.71,85.33,85.33,0,1,1,170.67,0,3.71,3.71,0,0,0,7.42,0,92.75,92.75,0,1,0-185.51,0A3.71,3.71,0,0,0,89,141Z"/></svg>