<svg width="193" height="58" viewBox="0 0 193 58" fill="none" xmlns="http://www.w3.org/2000/svg">
<path d="M61.2531 23.585C57.4191 21.8252 54.5418 20.4974 54.5418 17.2181C54.5418 14.4951 56.1394 12.9772 59.1358 12.9772C62.2916 12.9772 65.8895 13.9483 69.7619 15.8904V7.34095C65.1679 5.5811 62.1321 4.91016 58.8179 4.91016C51.7462 4.91016 47.9122 8.91854 47.9122 16.7373C47.9122 25.2868 52.8665 27.7694 58.7796 30.0761C63.1717 32.1345 64.6481 33.8362 64.6481 36.6834C64.6481 39.7128 63.21 40.9243 59.5344 40.9243C55.6237 40.9243 51.3083 39.5887 48.2291 37.4706V46.2604C51.9865 48.2026 55.339 48.9914 59.6151 48.9914C67.0046 48.9914 71.2808 44.8086 71.2808 36.9819C71.2808 30.7392 68.5629 26.7386 61.251 23.585H61.2531Z" fill="white"/>
<path d="M103.716 15.7664C99.762 15.7664 96.6062 19.4606 95.4465 26.192H95.3699C94.8501 19.4606 92.2141 15.7664 88.1399 15.7664C84.0656 15.7664 81.0299 19.5265 79.9086 26.192H79.832L80.5101 16.6134H74.3579V48.1368H80.5101V31.9508C80.5101 26.9211 82.7041 23.6418 85.3837 23.6418C88.2175 23.6418 89.9342 26.555 89.9342 31.767V48.1352H96.0864V31.9492C96.0864 26.9195 98.2845 23.6402 100.96 23.6402C103.635 23.6402 105.516 26.5534 105.516 31.7654V48.1336H111.668V30.0055C111.668 20.9753 108.632 15.7617 103.716 15.7617V15.7664Z" fill="white"/>
<path d="M125.768 15.7656C122.852 15.7656 119.615 16.6707 116.06 18.4305V26.4316C119.096 24.3151 121.928 23.2843 124.488 23.2843C128.042 23.2843 129.92 25.4668 129.962 29.5852H122.968C117.618 29.5852 114.583 33.1049 114.583 39.4042C114.583 45.7036 117.297 48.9892 121.77 48.9892C126.243 48.9892 129.28 45.4113 130.559 38.6233H130.641L129.963 48.1359H136.111V29.7093C136.111 20.4968 132.517 15.7656 125.769 15.7656H125.768ZM129.962 34.4986C129.962 38.4992 127.206 41.7109 123.968 41.7109C121.77 41.7109 120.572 40.3172 120.572 37.6522C120.572 34.9873 121.814 33.4035 124.17 33.4035H129.962V34.4986Z" fill="white"/>
<path d="M151.61 40.6854C148.694 40.6854 147.574 38.8674 147.574 34.1362V24.5576H156.165V16.6147H147.574V9.94922H144.899L144.861 10.4316C144.063 14.6725 141.705 17.5857 138.506 18.1923L138.227 18.2504V24.5576H141.427V35.7719C141.427 44.9263 144.139 48.9928 150.216 48.9928C152.332 48.9928 154.406 48.5042 156.528 47.5331V39.4739C154.69 40.3208 153.012 40.6854 151.612 40.6854H151.61Z" fill="white"/>
<path d="M160.125 16.6127V48.1361H166.277V16.6127H160.125ZM163.199 4.30469C161.005 4.30469 159.446 6.18867 159.446 8.91802C159.446 11.6474 161.005 13.5832 163.199 13.5832C165.393 13.5832 166.994 11.7071 166.994 8.91802C166.994 6.12897 165.397 4.30469 163.199 4.30469Z" fill="white"/>
<path d="M190.845 39.2883C189.965 35.3459 188.445 32.9229 185.612 32.3746L183.332 31.8922V31.768C188.647 30.2565 191.005 24.4301 191.245 16.6113H184.89C184.61 23.6413 182.812 28.9209 179.18 28.9209H176.664V4.12891L170.512 5.69863V48.1363H176.664V35.7686H179.3C181.892 35.7686 183.774 37.1623 184.572 40.9806L186.049 48.1347H193L190.845 39.2867V39.2883Z" fill="white"/>
<path d="M4.48108 36.422V22.8303C4.48108 16.8986 7.02294 11.6568 10.7544 9.89379L30.6047 0.516282C35.3841 -1.74167 40.2338 3.6903 40.2214 11.286C40.2131 16.201 38.104 20.5378 35.0113 21.9991L4.48108 36.422Z" fill="#FFB522"/>
<path d="M0 46.741C0 41.8165 2.11114 37.464 5.209 35.9996L35.7662 21.5625L35.7434 35.2014C35.733 41.1205 33.1932 46.3435 29.469 48.1017L9.61557 57.4808C4.84454 59.7372 0 54.3256 0 46.741Z" fill="#FF621D"/>
</svg>
